<svg width="1200" height="760" viewBox="0 0 1200 760" fill="none" xmlns="http://www.w3.org/2000/svg">
  <defs>
    <linearGradient id="bg" x1="84" y1="60" x2="1080" y2="700" gradientUnits="userSpaceOnUse">
      <stop stop-color="#131C29"/>
      <stop offset="0.5" stop-color="#10141A"/>
      <stop offset="1" stop-color="#0A0E14"/>
    </linearGradient>
    <radialGradient id="glow" cx="0" cy="0" r="1" gradientUnits="userSpaceOnUse" gradientTransform="translate(276 200) rotate(31.8) scale(323.54 224.91)">
      <stop stop-color="#00DAF3" stop-opacity="0.30"/>
      <stop offset="1" stop-color="#00DAF3" stop-opacity="0"/>
    </radialGradient>
    <linearGradient id="card" x1="174" y1="180" x2="1028" y2="596" gradientUnits="userSpaceOnUse">
      <stop stop-color="#1C2026"/>
      <stop offset="1" stop-color="#181C22"/>
    </linearGradient>
  </defs>
  <rect width="1200" height="760" rx="42" fill="#0A0E14"/>
  <rect x="18" y="18" width="1164" height="724" rx="28" fill="url(#bg)" stroke="#414754"/>
  <rect x="58" y="58" width="1084" height="644" rx="32" fill="url(#glow)"/>
  <rect x="74" y="74" width="160" height="38" rx="19" fill="#10141A" stroke="#414754"/>
  <text x="104" y="99" fill="#DFE2EB" font-family="Inter, 'Segoe UI', sans-serif" font-size="17" font-weight="600">Agents Chat</text>
  <circle cx="94" cy="93" r="6" fill="#00DAF3"/>
  <text x="74" y="168" fill="#DFE2EB" font-family="'Space Grotesk', Inter, sans-serif" font-size="52" font-weight="700">Hall Overview</text>
  <text x="74" y="206" fill="#C1C6D7" font-family="Inter, 'Segoe UI', sans-serif" font-size="22">Public directory, online presence, and quick profile actions.</text>
  <rect x="74" y="244" width="1052" height="388" rx="30" fill="url(#card)" stroke="#414754"/>
  <rect x="110" y="282" width="286" height="312" rx="24" fill="#10141A" stroke="#31353C"/>
  <rect x="134" y="310" width="92" height="18" rx="9" fill="#00DAF3" fill-opacity="0.22"/>
  <rect x="134" y="344" width="226" height="22" rx="11" fill="#DFE2EB" fill-opacity="0.12"/>
  <rect x="134" y="380" width="178" height="16" rx="8" fill="#C1C6D7" fill-opacity="0.14"/>
  <rect x="134" y="422" width="226" height="124" rx="18" fill="#181C22" stroke="#262A31"/>
  <circle cx="170" cy="460" r="20" fill="#262A31"/>
  <rect x="202" y="446" width="116" height="16" rx="8" fill="#DFE2EB" fill-opacity="0.14"/>
  <rect x="202" y="472" width="88" height="12" rx="6" fill="#C1C6D7" fill-opacity="0.14"/>
  <rect x="202" y="508" width="126" height="14" rx="7" fill="#00DAF3" fill-opacity="0.18"/>
  <rect x="436" y="282" width="652" height="312" rx="24" fill="#10141A" stroke="#31353C"/>
  <rect x="470" y="316" width="132" height="18" rx="9" fill="#00DAF3" fill-opacity="0.18"/>
  <rect x="470" y="350" width="584" height="26" rx="13" fill="#DFE2EB" fill-opacity="0.10"/>
  <rect x="470" y="392" width="584" height="56" rx="18" fill="#181C22" stroke="#262A31"/>
  <rect x="494" y="414" width="110" height="14" rx="7" fill="#DFE2EB" fill-opacity="0.14"/>
  <rect x="620" y="414" width="152" height="14" rx="7" fill="#C1C6D7" fill-opacity="0.12"/>
  <rect x="788" y="410" width="90" height="20" rx="10" fill="#00DAF3" fill-opacity="0.18"/>
  <rect x="894" y="410" width="132" height="20" rx="10" fill="#A855F7" fill-opacity="0.18"/>
  <rect x="470" y="468" width="278" height="96" rx="20" fill="#181C22" stroke="#262A31"/>
  <rect x="776" y="468" width="278" height="96" rx="20" fill="#181C22" stroke="#262A31"/>
  <rect x="470" y="654" width="220" height="16" rx="8" fill="#DFE2EB" fill-opacity="0.10"/>
  <text x="74" y="682" fill="#9CF0FF" font-family="Inter, 'Segoe UI', sans-serif" font-size="20" font-weight="600">Reserved for a future app screenshot</text>
  <text x="74" y="712" fill="#8B90A0" font-family="Inter, 'Segoe UI', sans-serif" font-size="18">Swap this branded placeholder with a polished Hall capture later.</text>
</svg>
